<?xml version="1.0" encoding="UTF-8"?>
<svg width="190px" height="100px" viewBox="0 0 866 268" version="1.1" xmlns="http://www.w3.org/2000/svg" xmlns:xlink="http://www.w3.org/1999/xlink">
    <!-- Generator: Sketch 52.5 (67469) - http://www.bohemiancoding.com/sketch -->
    <title>New Sterling Logo.@2x</title>
    <desc>Created with Sketch.</desc>
    <g id="New-Sterling-Logo." stroke="none" stroke-width="1" fill="none" fill-rule="evenodd">
        <path d="M133.678,0.769 C207.325,0.769 267.027,60.471 267.027,134.116 C267.027,207.761 207.325,267.463 133.678,267.463 C60.033,267.463 0.332,207.761 0.332,134.116 C0.332,60.471 60.033,0.769 133.678,0.769 Z M177.819,42.549 C199.343,42.549 216.79,59.998 216.79,81.52 C216.79,103.042 199.343,120.489 177.819,120.489 C156.298,120.489 138.851,103.042 138.851,81.52 C138.851,59.998 156.298,42.549 177.819,42.549 Z" id="Fill-1" fill="#FFFFFF"/>
<path d="M382.853,205.847 C382.853,191.16 373.115,180.785 353.162,176.634 C332.731,172.324 327.621,168.334 327.621,161.789 C327.621,153.328 333.847,147.741 350.768,147.741 C362.739,147.741 372.477,151.253 379.181,158.436 L379.821,158.436 L379.821,148.38 C379.821,139.281 372.477,128.426 346.936,128.426 C321.236,128.426 305.911,145.666 305.911,163.863 C305.911,178.71 316.446,187.968 334.963,191.959 C358.11,196.908 360.985,200.259 360.985,207.762 C360.985,216.541 355.717,222.128 339.274,222.128 C326.025,222.128 316.129,216.861 308.785,210.316 L308.307,210.316 L308.307,220.054 C308.307,232.983 319.64,241.603 341.668,241.603 C368.168,241.603 382.853,227.396 382.853,205.847 Z M397.247,156.999 L397.247,208.72 C397.247,228.833 407.782,240.647 429.493,240.647 C441.943,240.647 448.329,235.058 448.329,226.279 L448.329,218.616 L447.53,218.616 C444.178,220.692 438.911,221.65 432.047,221.65 C423.426,221.65 418.476,217.34 418.476,206.165 L418.476,172.484 L435.558,172.484 C444.337,172.484 448.329,166.738 448.329,162.267 L448.329,153.487 L418.476,153.487 L418.476,134.013 L413.528,134.013 C410.176,134.013 406.345,136.567 403.471,139.919 C398.842,145.346 397.247,148.539 397.247,156.999 Z M529.766,184.935 C529.766,164.343 513.165,151.572 495.284,151.572 C470.702,151.572 453.143,169.611 453.143,198.344 C453.143,224.682 474.055,241.603 495.445,241.603 C519.072,241.603 526.574,233.142 526.574,222.128 L526.574,215.424 L525.774,215.424 C518.911,221.809 508.375,223.566 499.435,223.566 C486.823,223.566 476.927,216.701 475.331,205.847 L489.378,205.847 C517.793,205.847 529.766,200.739 529.766,184.935 Z M509.651,182.38 C509.651,188.446 505.023,190.681 484.749,190.681 L475.173,190.681 L475.331,187.808 C475.812,177.911 482.993,169.451 493.369,169.451 C503.266,169.451 509.651,173.76 509.651,182.38 Z M591.888,174.399 L591.888,166.738 C591.888,160.193 587.258,152.69 574.009,152.69 C551.342,152.69 542.244,169.131 542.244,186.372 L542.244,225.959 C542.244,234.898 548.309,239.688 557.885,239.688 L563.792,239.688 L563.792,190.203 C563.792,177.114 569.06,171.845 578.637,171.845 C584.225,171.845 587.896,173.123 591.091,174.399 L591.888,174.399 Z M642.358,227.556 L642.358,222.927 L636.612,222.927 C626.554,222.927 622.085,220.213 622.085,211.593 L622.085,139.121 C622.085,130.979 617.456,124.754 606.76,124.754 L600.694,124.754 L600.694,213.669 C600.694,231.068 610.273,240.487 627.992,240.487 C637.41,240.487 642.358,236.815 642.358,227.556 Z M673.833,134.811 C673.833,127.947 668.087,122.36 661.221,122.36 C654.357,122.36 648.77,127.947 648.77,134.811 C648.77,141.675 654.357,147.422 661.221,147.422 C668.087,147.422 673.833,141.675 673.833,134.811 Z M689.158,227.556 L689.158,222.927 L685.166,222.927 C675.748,222.927 672.076,220.213 672.076,211.593 L672.076,171.366 C672.076,160.512 666.33,155.403 656.751,155.403 L650.685,155.403 C650.685,155.403 650.685,208.72 650.685,213.669 C650.685,231.068 659.783,240.487 676.387,240.487 C685.486,240.487 689.158,236.815 689.158,227.556 Z M772.988,239.688 L772.988,189.564 C772.988,165.14 756.229,151.572 735.955,151.572 C709.136,151.572 697.164,170.249 697.164,188.446 L697.164,225.641 C697.164,233.622 703.07,239.688 712.171,239.688 L718.556,239.688 L718.556,189.883 C718.556,177.592 724.941,170.569 734.199,170.569 C745.212,170.569 751.598,176.954 751.598,191.48 L751.598,225.641 C751.598,233.622 757.663,239.688 767.243,239.688 L772.988,239.688 Z M865.122,203.93 L865.122,189.245 C865.122,167.216 851.395,151.572 830.005,151.572 C802.228,151.572 786.266,171.207 786.266,195.471 C786.266,215.743 801.111,230.271 822.021,230.271 C834.313,230.271 842.455,223.726 844.209,217.5 L844.209,219.574 C844.209,220.373 844.37,222.607 844.37,223.885 C844.53,225.322 844.53,227.077 844.53,228.354 C844.53,240.805 837.507,248.148 822.021,248.148 C809.731,248.148 799.833,244.317 794.726,238.889 L793.767,238.889 L793.767,248.628 C793.767,258.844 805.898,267.463 823.619,267.463 C851.395,267.463 865.761,248.148 865.761,226.599 C865.761,223.726 865.6,219.096 865.442,215.583 C865.281,211.752 865.122,206.805 865.122,203.93 Z M827.609,170.569 C837.028,170.569 843.731,177.114 843.731,190.522 C843.731,204.25 836.07,212.231 825.374,212.231 C815.158,212.231 808.294,203.93 808.294,192.756 C808.294,179.827 816.595,170.569 827.609,170.569 Z" id="Fill-3" fill="#FFFFFF"/>
    </g>
</svg>